<?xml version="1.0" encoding="utf-8"?>
<!-- Generator: Adobe Illustrator 18.1.1, SVG Export Plug-In . SVG Version: 6.00 Build 0)  -->
<!DOCTYPE svg PUBLIC "-//W3C//DTD SVG 1.1//EN" "http://www.w3.org/Graphics/SVG/1.1/DTD/svg11.dtd">
<svg version="1.1" id="Layer_1" xmlns="http://www.w3.org/2000/svg" xmlns:xlink="http://www.w3.org/1999/xlink" x="0px" y="0px"
	 viewBox="0 0 50.96 11.737" enable-background="new 0 0 50.96 11.737" xml:space="preserve">
<g>
	<polyline fill="#FFFFFF" points="1.64,10.055 1.64,2.055 5.64,10.055 9.64,2.055 9.64,10.055 	"/>
	<polygon fill="#595959" points="6.087,10.279 5.192,10.279 2.14,4.174 2.14,10.056 1.14,10.056 1.14,2.056 2.087,1.832 5.64,8.938 
		9.192,1.832 10.14,2.056 10.14,10.056 9.14,10.056 9.14,4.174 	"/>
</g>
<g>
	<line fill="#FFFFFF" x1="17.64" y1="2.055" x2="17.64" y2="10.055"/>
	<rect x="17.14" y="2.056" fill="#595959" width="1" height="8"/>
</g>
<g>
	<polyline fill="#FFFFFF" points="25.64,10.055 25.64,2.055 33.64,10.055 33.64,2.055 	"/>
	<polygon fill="#595959" points="33.286,10.409 26.14,3.263 26.14,10.056 25.14,10.056 25.14,2.056 25.993,1.702 33.14,8.849 
		33.14,2.056 34.14,2.056 34.14,10.056 	"/>
</g>
<g>
	<polygon fill="#FFFFFF" points="41.64,2.055 41.64,10.055 49.64,6.055 	"/>
	<path fill="#595959" d="M41.863,10.503l-0.724-0.447v-8l0.724-0.447l8,4v0.895L41.863,10.503z M42.14,2.865v6.382l6.382-3.191
		L42.14,2.865z"/>
</g>
</svg>
