<?xml version="1.0" encoding="utf-8"?>
<!-- Generator: Adobe Illustrator 18.1.1, SVG Export Plug-In . SVG Version: 6.00 Build 0)  -->
<!DOCTYPE svg PUBLIC "-//W3C//DTD SVG 1.1//EN" "http://www.w3.org/Graphics/SVG/1.1/DTD/svg11.dtd">
<svg version="1.1" id="Layer_1" xmlns="http://www.w3.org/2000/svg" xmlns:xlink="http://www.w3.org/1999/xlink" x="0px" y="0px"
	 viewBox="0 0 16 14" enable-background="new 0 0 16 14" xml:space="preserve">
<g>
	<path fill="#B3B2B3" d="M12.982,1.4H3.018C2.677,1.4,2.4,1.677,2.4,2.018v9.964c0,0.341,0.277,0.618,0.618,0.618h5.364V8.263h-1.46
		v-1.69h1.46V5.326c0-1.447,0.884-2.234,2.174-2.234c0.618,0,1.149,0.046,1.304,0.067V4.67l-0.895,0
		c-0.702,0-0.838,0.334-0.838,0.823v1.079h1.674l-0.218,1.69h-1.456V12.6h2.854c0.341,0,0.618-0.277,0.618-0.618V2.018
		C13.6,1.677,13.323,1.4,12.982,1.4z"/>
</g>
</svg>
