<?xml version="1.0" encoding="utf-8"?>
<!DOCTYPE svg PUBLIC "-//W3C//DTD SVG 1.1//EN" "http://www.w3.org/Graphics/SVG/1.1/DTD/svg11.dtd">
<svg version="1.1" 
	id="Gameboy Speaker" 
	xmlns="http://www.w3.org/2000/svg" 
	xmlns:xlink="http://www.w3.org/1999/xlink" 
	x="0px" 
	y="0px"
	viewBox="-1 0 19 15" 
	xml:space="preserve">
<g>
	<path fill="#7F7F7F" d="M3.762,14.279L3.762,14.279c-0.476,0.275-1.091,0.11-1.366-0.366l-2.515-4.356
		c-0.275-0.476-0.11-1.091,0.366-1.366l0,0c0.476-0.275,1.091-0.11,1.366,0.366l2.515,4.356C4.403,13.389,4.239,14.004,3.762,14.279
		z"/>
	<path fill="#7F7F7F" d="M6.36,12.779L6.36,12.779c-0.476,0.275-1.091,0.11-1.366-0.366L2.479,8.057
		c-0.275-0.476-0.11-1.091,0.366-1.366l0,0c0.476-0.275,1.091-0.11,1.366,0.366l2.515,4.356C7.001,11.889,6.837,12.504,6.36,12.779z
		"/>
	<path fill="#7F7F7F" d="M8.958,11.279L8.958,11.279c-0.476,0.275-1.091,0.11-1.366-0.366L5.078,6.557
		c-0.275-0.476-0.11-1.091,0.366-1.366l0,0C5.92,4.916,6.535,5.081,6.81,5.557l2.515,4.356C9.599,10.389,9.435,11.004,8.958,11.279z
		"/>
	<path fill="#7F7F7F" d="M11.556,9.779L11.556,9.779c-0.476,0.275-1.091,0.11-1.366-0.366L7.676,5.057
		c-0.275-0.476-0.11-1.091,0.366-1.366l0,0c0.476-0.275,1.091-0.11,1.366,0.366l2.515,4.356C12.197,8.889,12.033,9.504,11.556,9.779
		z"/>
	<path fill="#7F7F7F" d="M14.155,8.279L14.155,8.279c-0.476,0.275-1.091,0.11-1.366-0.366l-2.515-4.356
		c-0.275-0.476-0.11-1.091,0.366-1.366l0,0c0.476-0.275,1.091-0.11,1.366,0.366l2.515,4.356C14.796,7.389,14.631,8.004,14.155,8.279
		z"/>
	<path fill="#7F7F7F" d="M16.753,6.779L16.753,6.779c-0.476,0.275-1.091,0.11-1.366-0.366l-2.515-4.356
		c-0.275-0.476-0.11-1.091,0.366-1.366l0,0c0.476-0.275,1.091-0.11,1.366,0.366l2.515,4.356C17.394,5.889,17.229,6.504,16.753,6.779
		z"/>
</g>
</svg>
