<?xml version="1.0" encoding="utf-8"?>
<!-- Generator: Adobe Illustrator 18.1.1, SVG Export Plug-In . SVG Version: 6.00 Build 0)  -->
<!DOCTYPE svg PUBLIC "-//W3C//DTD SVG 1.1//EN" "http://www.w3.org/Graphics/SVG/1.1/DTD/svg11.dtd">
<svg version="1.1" id="gba" xmlns="http://www.w3.org/2000/svg" xmlns:xlink="http://www.w3.org/1999/xlink" x="0px" y="0px"
	 viewBox="0 0 24 24" enable-background="new 0 0 24 24" xml:space="preserve">
<path id="body" fill="#666666" d="M5.578,5.711L5.267,5.867C4.434,6.283,3.515,6.5,2.584,6.5H1.883c-0.504,0-0.93,0.376-0.992,0.876
	l-0.642,6.568c-0.14,1.439,0.858,2.741,2.285,2.979l6.198,1.031c2.177,0.362,4.399,0.361,6.576-0.002l6.157-1.028
	c1.427-0.238,2.425-1.541,2.285-2.981l-0.641-6.565C23.047,6.876,22.621,6.5,22.117,6.5h-0.7c-0.931,0-1.85-0.217-2.683-0.633
	l-0.311-0.155C18.145,5.572,17.838,5.5,17.528,5.5H9H6.472C6.162,5.5,5.855,5.572,5.578,5.711z"/>
<path id="screen-container" fill="#808080" d="M6,15.314V7.732C6,7.439,6.212,7.188,6.501,7.14l2.211-0.368
	c2.177-0.363,4.399-0.363,6.576,0l2.211,0.368C17.788,7.189,18,7.439,18,7.732v7.582c0,0.684-0.495,1.268-1.17,1.381l-1.542,0.257
	c-2.177,0.363-4.399,0.363-6.576,0L7.17,16.695C6.495,16.582,6,15.998,6,15.314z"/>
<path id="screen" fill="#999999" d="M16.8,14.5H7.2c-0.11,0-0.2-0.09-0.2-0.2V7.7c0-0.11,0.09-0.2,0.2-0.2h9.6
	c0.11,0,0.2,0.09,0.2,0.2v6.6C17,14.41,16.91,14.5,16.8,14.5z"/>
<circle id="a" fill="#B2B2B2" cx="22" cy="10.5" r="0.8"/>
<circle id="b" fill="#B2B2B2" cx="20" cy="11.5" r="0.8"/>
<g id="speaker">
	<path id="slot1" fill="#999999" d="M18.872,14.096l2.708-0.726c0.047-0.012,0.074-0.061,0.062-0.107l0,0
		c-0.012-0.047-0.061-0.074-0.107-0.062l-2.708,0.726c-0.047,0.012-0.074,0.061-0.062,0.107l0,0
		C18.777,14.08,18.825,14.108,18.872,14.096z"/>
	<path id="slot2" fill="#999999" d="M18.962,14.434l2.708-0.726c0.047-0.012,0.074-0.061,0.062-0.107l0,0
		c-0.012-0.047-0.061-0.074-0.107-0.062l-2.708,0.726c-0.047,0.012-0.074,0.061-0.062,0.107l0,0
		C18.867,14.419,18.916,14.447,18.962,14.434z"/>
	<path id="slot3" fill="#999999" d="M19.053,14.773l2.708-0.726c0.047-0.012,0.074-0.061,0.062-0.107l0,0
		c-0.012-0.047-0.061-0.074-0.107-0.062l-2.708,0.726c-0.047,0.012-0.074,0.061-0.062,0.107l0,0
		C18.958,14.758,19.006,14.785,19.053,14.773z"/>
	<path id="slot4" fill="#999999" d="M19.144,15.111l2.708-0.726c0.047-0.012,0.074-0.061,0.062-0.107l0,0
		c-0.012-0.047-0.061-0.074-0.107-0.062l-2.708,0.726c-0.047,0.012-0.074,0.061-0.062,0.107l0,0
		C19.049,15.096,19.097,15.124,19.144,15.111z"/>
	<path id="slot5" fill="#999999" d="M19.234,15.45l2.708-0.726c0.047-0.012,0.074-0.061,0.062-0.107l0,0
		c-0.012-0.047-0.061-0.074-0.107-0.062l-2.708,0.726c-0.047,0.012-0.074,0.061-0.062,0.107l0,0
		C19.139,15.435,19.188,15.462,19.234,15.45z"/>
</g>
<circle id="select" fill="#B2B2B2" cx="5" cy="15.5" r="0.4"/>
<circle id="start" fill="#B2B2B2" cx="5" cy="14" r="0.4"/>
<polygon id="dpad" fill="#B2B2B2" points="5,10.5 4,10.5 4,9.5 3,9.5 3,10.5 2,10.5 2,11.5 3,11.5 3,12.5 4,12.5 4,11.5 5,11.5 "/>
<circle id="led" fill="#A6BF84" cx="20" cy="7.5" r="0.1"/>
</svg>
