<?xml version="1.0" encoding="utf-8"?>
<!-- Generator: Adobe Illustrator 18.1.1, SVG Export Plug-In . SVG Version: 6.00 Build 0)  -->
<!DOCTYPE svg PUBLIC "-//W3C//DTD SVG 1.1//EN" "http://www.w3.org/Graphics/SVG/1.1/DTD/svg11.dtd">
<svg version="1.1" id="Layer_1" xmlns="http://www.w3.org/2000/svg" xmlns:xlink="http://www.w3.org/1999/xlink" x="0px" y="0px"
	 viewBox="0 0 16 14" enable-background="new 0 0 16 14" xml:space="preserve">
<g>
	<g>
		<g>
			<path fill="#B3B2B3" d="M12.814,1.352H3.187c-0.46,0-0.834,0.365-0.834,0.814v9.668c0,0.45,0.374,0.815,0.834,0.815h9.627
				c0.461,0,0.836-0.365,0.836-0.815V2.167C13.651,1.717,13.275,1.352,12.814,1.352z M5.704,10.979H4.028V5.588h1.676V10.979z
				 M4.866,4.851c-0.537,0-0.972-0.435-0.972-0.972c0-0.536,0.435-0.971,0.972-0.971c0.536,0,0.971,0.435,0.971,0.971
				C5.837,4.415,5.402,4.851,4.866,4.851z M11.98,10.979h-1.674V8.357c0-0.625-0.011-1.429-0.871-1.429
				c-0.872,0-1.006,0.681-1.006,1.384v2.667H6.755V5.588h1.607v0.737h0.022c0.224-0.424,0.77-0.871,1.586-0.871
				c1.697,0,2.01,1.117,2.01,2.568V10.979z"/>
		</g>
	</g>
</g>
</svg>
