<?xml version="1.0" encoding="utf-8"?>
<!-- DAPPER GENTLEMEN LOGO - COPYRIGHT TWO THOUSAND AND FOURTEEN  -->
<!DOCTYPE svg PUBLIC "-//W3C//DTD SVG 1.1//EN" "http://www.w3.org/Graphics/SVG/1.1/DTD/svg11.dtd">

<svg version="1.1" 
	id="dapperGentlemen" 
	xmlns="http://www.w3.org/2000/svg" 
	xmlns:xlink="http://www.w3.org/1999/xlink" 
	x="0px"
	y="0px" 
	viewBox="0 0 100 100" 
	enable-background="new 0 0 100 100" 
	xml:space="preserve"
	>
<g 
	id="stache"
	>
	<path 
		id="dapper-stache" 
		fill="#F7B3A1" 
		d="M87,69.2c0,0-0.4,29-14,18.8c-11.8-8.9-22.1-4-23.1-2c-0.9-2-11.3-6.9-23.1,2
		c-13.5,10.3-14-18.8-14-18.8S7.4,116,49.9,91.9C92.4,115.9,87,69.2,87,69.2z"
		/>
</g>
<g 
	id="accesseries"
	>
	<path 
		id="monocle" 
		fill="#F7B3A1" 
		d="M84.6,55c0,0,0-1.5-1.9-1.8c0.3,0.6,0.3,1,0.3,1c0,2.5-0.9,4.2-3,5.7c-1.5,1.1-3.1,2.1-4.7,3
		c-0.6,0.3-1.2,0.7-1.9,1c-3.2,1.6-6.7,3-10.3,3.9c-0.7,0.2-1.4,0.3-2.1,0.5c-3.6,0.8-7.4,1.2-11.2,1.2c-11,0-21.7-3.4-30.1-9.6
		c-2-1.5-3-3.3-3-5.7c0,0,0-0.4,0.3-1c-2,0.2-1.9,1.8-1.9,1.8c0,2.5,0.9,4.3,3,5.8c8.6,6.3,19.6,10.1,31.7,10.1
		c3.7,0,7.3-0.3,10.7-1c-0.1,0.7-0.2,1.5-0.2,2.2c0,5.7,4.6,10.3,10.3,10.3c5.4,0,9.7-4.1,10.2-9.3c0.4-0.1,0.8-0.4,1-0.8
		c0,0,0,0,0.1,0v26.4c0,0,0,0.1,0.2,0.1s0.2-0.1,0.2-0.1s0-26.5,0-26.9c0-0.2-0.3-0.2-0.3-0.2c0-0.7-0.5-1.3-1.2-1.4
		c-0.5-2.6-1.9-4.8-3.9-6.3c1.7-0.9,3.3-2,4.8-3.1C83.7,59.3,84.6,57.5,84.6,55z M79.2,72.1c0,4.7-3.8,8.6-8.6,8.6
		c-4.7,0-8.6-3.8-8.6-8.6c0-0.9,0.1-1.8,0.4-2.6c4.5-1,8.8-2.6,12.7-4.7C77.6,66.3,79.2,69,79.2,72.1z"
		/>
	<path 
		id="tophat" 
		fill="#F7B3A1" 
		d="M20.1,59.4c8.3,6.1,18.9,9.5,29.8,9.5s21.5-3.4,29.8-9.5c1.9-1.4,2.7-3,2.7-5.2
		c0,0-0.2-0.7-0.5-1c-0.9,0-2.1,0.3-3.7,0.8v-1V5.2c-3.4-2.5-14.6-4.3-27.9-4.3S25.5,2.7,22,5.2V53v1.3c-1.9-0.7-3.2-1-4.2-1
		c-0.2,0.1-0.4,1-0.4,1C17.4,56.5,18.2,58.1,20.1,59.4z M75.4,46.4c0.7-0.2,1.3-0.4,1.8-0.6V53v3.5c-0.4,0.3-1,0.6-1.8,1V46.4z
		 M71.9,47.2c1-0.2,1.4-0.3,2.3-0.5V58c-0.8,0.3-1.2,0.4-2.3,0.7V47.2z M68.4,47.8c0.8-0.1,1.6-0.2,2.3-0.3V59v0.1
		c-0.7,0.2-1.4,0.3-2.3,0.5V47.8z M64.9,48.2c0.8-0.1,1.5-0.1,2.3-0.2v11.9c-0.7,0.1-1.5,0.3-2.3,0.4V48.2z M61.3,48.5
		c0.8,0,1.5-0.1,2.3-0.2v12.1c-0.7,0.1-1.5,0.2-2.3,0.3V48.5z M57.8,48.7c0.8,0,1.5-0.1,2.3-0.1v12.3c-0.7,0.1-1.5,0.1-2.3,0.2V48.7
		z M54.3,48.8c0.8,0,1.5,0,2.3-0.1v12.4c-0.7,0-1.5,0.1-2.3,0.1V48.8z M50.8,48.8c0.8,0,1.5,0,2.3,0v12.4c-0.7,0-1.5,0-2.3,0V48.8z
		 M47.3,48.8c0.7,0,1.5,0,2.3,0v12.4c-0.8,0-1.5,0-2.3,0V48.8z M43.8,48.7c0.7,0,1.5,0,2.3,0.1v12.4c-0.8,0-1.5-0.1-2.3-0.1V48.7z
		 M40.3,48.5c0.7,0,1.5,0.1,2.3,0.1V61c-0.8,0-1.5-0.1-2.3-0.2V48.5z M36.7,48.3c0.7,0.1,1.5,0.1,2.3,0.2v12.2
		c-0.8-0.1-1.5-0.2-2.3-0.3V48.3z M33.2,47.9c0.7,0.1,1.5,0.2,2.3,0.2v12.1c-0.8-0.1-1.5-0.2-2.3-0.4V47.9z M29.7,47.4
		c0.7,0.1,1.5,0.2,2.3,0.3v11.9c-0.8-0.2-1.6-0.3-2.3-0.5V47.4z M26.2,46.8c0.7,0.2,1.5,0.3,2.3,0.5v11.6c-0.9-0.2-1.6-0.5-2.3-0.7
		C26.2,58,26.2,46.8,26.2,46.8z M23,53v-7.1c0.5,0.2,1.2,0.4,1.9,0.6v11.1c-0.9-0.4-1.5-0.7-1.9-1V53z"
		/>
</g>
</svg>
