<?xml version="1.0" encoding="utf-8"?>
<!-- Generator: Adobe Illustrator 18.1.1, SVG Export Plug-In . SVG Version: 6.00 Build 0)  -->
<!DOCTYPE svg PUBLIC "-//W3C//DTD SVG 1.1//EN" "http://www.w3.org/Graphics/SVG/1.1/DTD/svg11.dtd">
<svg version="1.1" id="Layer_1" xmlns="http://www.w3.org/2000/svg" xmlns:xlink="http://www.w3.org/1999/xlink" x="0px" y="0px"
	 viewBox="0 0 80 80" enable-background="new 0 0 80 80" xml:space="preserve">
<path fill="#FFFFFF" stroke="#D43B11" stroke-width="0.75" stroke-miterlimit="10" d="M64,32H16c-4.4,0-8-3.6-8-8v0c0-4.4,3.6-8,8-8
	h48c4.4,0,8,3.6,8,8v0C72,28.4,68.4,32,64,32z"/>
<g>
	<path fill="#D43B11" d="M25.8,20.7h1.4c0.6,0,1,0.1,1.3,0.4s0.5,0.6,0.5,1c0,0.6-0.3,1-1,1.3c0.2,0.1,0.4,0.4,0.7,0.8l1.2,1.8h-0.5
		l-0.9-1.5c-0.3-0.5-0.6-0.8-0.7-0.9c-0.2-0.1-0.4-0.2-0.8-0.2h-0.7V26h-0.4V20.7z M26.3,21v2.1h0.9c0.4,0,0.8-0.1,1-0.3
		c0.2-0.2,0.4-0.4,0.4-0.8c0-0.3-0.1-0.6-0.4-0.8c-0.2-0.2-0.6-0.3-1-0.3H26.3z"/>
	<path fill="#D43B11" d="M33.2,24.1h-2.8c0,0.1,0,0.1,0,0.2c0,0.4,0.1,0.7,0.4,1c0.3,0.3,0.6,0.4,1,0.4c0.4,0,0.9-0.2,1.3-0.5v0.4
		c-0.4,0.3-0.9,0.5-1.3,0.5c-0.5,0-0.9-0.2-1.3-0.5c-0.3-0.4-0.5-0.8-0.5-1.3c0-0.5,0.2-0.9,0.5-1.3s0.7-0.5,1.1-0.5
		c0.4,0,0.8,0.2,1.1,0.5C33,23.2,33.2,23.6,33.2,24.1z M30.5,23.8h2.3c-0.1-0.7-0.5-1-1.1-1c-0.3,0-0.5,0.1-0.7,0.3
		C30.7,23.2,30.5,23.5,30.5,23.8z"/>
	<path fill="#D43B11" d="M36.4,22.6V23c-0.3-0.1-0.6-0.2-0.9-0.2c-0.4,0-0.7,0.1-1,0.4c-0.2,0.3-0.4,0.6-0.4,1.1
		c0,0.4,0.1,0.8,0.4,1.1c0.2,0.3,0.6,0.4,1,0.4c0.3,0,0.6-0.1,0.9-0.2v0.4c-0.4,0.1-0.7,0.2-1,0.2c-0.5,0-0.9-0.2-1.2-0.5
		c-0.3-0.3-0.5-0.8-0.5-1.3c0-0.6,0.2-1,0.5-1.4c0.3-0.3,0.7-0.5,1.2-0.5C35.7,22.4,36,22.5,36.4,22.6z"/>
	<path fill="#D43B11" d="M38.8,22.4c0.5,0,0.9,0.2,1.3,0.5c0.3,0.3,0.5,0.8,0.5,1.3c0,0.5-0.2,1-0.5,1.3c-0.3,0.3-0.8,0.5-1.3,0.5
		c-0.5,0-0.9-0.2-1.3-0.5c-0.3-0.3-0.5-0.8-0.5-1.3c0-0.5,0.2-1,0.5-1.3C37.9,22.6,38.3,22.4,38.8,22.4z M38.8,25.7
		c0.4,0,0.7-0.1,1-0.4c0.3-0.3,0.4-0.6,0.4-1c0-0.4-0.1-0.8-0.4-1c-0.3-0.3-0.6-0.4-1-0.4c-0.4,0-0.7,0.1-1,0.4s-0.4,0.6-0.4,1
		c0,0.4,0.1,0.8,0.4,1C38.1,25.6,38.4,25.7,38.8,25.7z"/>
	<path fill="#D43B11" d="M41.8,22.5v0.6h0c0.3-0.5,0.7-0.7,1.1-0.7c0.5,0,0.9,0.3,1.1,0.8c0.3-0.6,0.7-0.8,1.2-0.8
		c0.4,0,0.7,0.1,0.9,0.4c0.2,0.3,0.3,0.6,0.3,1V26h-0.4v-2c0-0.4-0.1-0.7-0.2-0.9c-0.2-0.2-0.4-0.3-0.7-0.3c-0.2,0-0.4,0.1-0.6,0.2
		c-0.2,0.1-0.3,0.3-0.5,0.6V26h-0.4v-2c0-0.4-0.1-0.7-0.2-0.9c-0.2-0.2-0.4-0.3-0.7-0.3c-0.4,0-0.8,0.2-1.1,0.8V26h-0.4v-3.5H41.8z"
		/>
	<path fill="#D43B11" d="M47.8,22.5v0.6h0c0.3-0.5,0.7-0.7,1.1-0.7c0.5,0,0.9,0.3,1.1,0.8c0.3-0.6,0.7-0.8,1.2-0.8
		c0.4,0,0.7,0.1,0.9,0.4c0.2,0.3,0.3,0.6,0.3,1V26h-0.4v-2c0-0.4-0.1-0.7-0.2-0.9c-0.2-0.2-0.4-0.3-0.7-0.3c-0.2,0-0.4,0.1-0.6,0.2
		c-0.2,0.1-0.3,0.3-0.5,0.6V26h-0.4v-2c0-0.4-0.1-0.7-0.2-0.9c-0.2-0.2-0.4-0.3-0.7-0.3c-0.4,0-0.8,0.2-1.1,0.8V26h-0.4v-3.5H47.8z"
		/>
	<path fill="#D43B11" d="M56.4,24.1h-2.8c0,0.1,0,0.1,0,0.2c0,0.4,0.1,0.7,0.4,1c0.3,0.3,0.6,0.4,1,0.4c0.4,0,0.9-0.2,1.3-0.5v0.4
		c-0.4,0.3-0.9,0.5-1.3,0.5c-0.5,0-0.9-0.2-1.3-0.5s-0.5-0.8-0.5-1.3c0-0.5,0.2-0.9,0.5-1.3s0.7-0.5,1.2-0.5c0.4,0,0.8,0.2,1.1,0.5
		C56.3,23.2,56.4,23.6,56.4,24.1z M53.7,23.8H56c-0.1-0.7-0.5-1-1.1-1c-0.3,0-0.5,0.1-0.7,0.3C53.9,23.2,53.8,23.5,53.7,23.8z"/>
	<path fill="#D43B11" d="M57.5,22.5v0.6h0c0.3-0.5,0.7-0.7,1.2-0.7c0.4,0,0.7,0.1,0.9,0.4s0.4,0.6,0.4,1.1V26h-0.4v-2
		c0-0.8-0.3-1.2-1-1.2c-0.5,0-0.8,0.2-1.1,0.8V26h-0.4v-3.5H57.5z"/>
	<path fill="#D43B11" d="M64,20.7V26h-0.4v-0.3c-0.3,0.2-0.7,0.3-1,0.3c-0.5,0-0.9-0.2-1.3-0.5s-0.5-0.8-0.5-1.3
		c0-0.5,0.2-1,0.5-1.3c0.3-0.3,0.8-0.5,1.3-0.5c0.3,0,0.7,0.1,1,0.3v-2H64z M63.6,25.4v-2.3c-0.3-0.2-0.7-0.3-1-0.3
		c-0.4,0-0.7,0.1-1,0.4c-0.3,0.3-0.4,0.6-0.4,1c0,0.4,0.1,0.8,0.4,1.1s0.6,0.4,1,0.4C63,25.7,63.3,25.6,63.6,25.4z"/>
</g>
<g>
	<polygon fill="#D43B11" points="21,27.3 15,27.3 15,21.3 16.6,21.3 16.6,21.7 15.4,21.7 15.4,27 20.6,27 20.6,21.7 19.4,21.7 
		19.4,21.3 21,21.3 	"/>
</g>
<g>
	<line fill="none" stroke="#D43B11" stroke-width="0.5" stroke-miterlimit="10" x1="18" y1="22.2" x2="18" y2="18.4"/>
	<g>
		<polygon fill="#D43B11" points="19.4,19.6 19.2,19.8 18,18.5 16.8,19.8 16.6,19.6 18,18 		"/>
	</g>
</g>
</svg>
