<?xml version="1.0" encoding="utf-8"?>
<!-- Generator: Adobe Illustrator 18.1.1, SVG Export Plug-In . SVG Version: 6.00 Build 0)  -->
<!DOCTYPE svg PUBLIC "-//W3C//DTD SVG 1.1//EN" "http://www.w3.org/Graphics/SVG/1.1/DTD/svg11.dtd">
<svg version="1.1" id="dial" xmlns="http://www.w3.org/2000/svg" xmlns:xlink="http://www.w3.org/1999/xlink" x="0px" y="0px"
	 viewBox="0 0 80 80" enable-background="new 0 0 80 80" xml:space="preserve">
<circle id="outside" fill="#666666" cx="40" cy="40" r="40"/>
<circle id="ring" fill="#4C4C4C" cx="40" cy="40" r="28"/>
<circle id="inside" fill="#333333" cx="40" cy="40" r="26"/>
<path id="knob" fill="#666666" d="M57,57L57,57c-3.1,3.1-8.2,3.1-11.3,0L23,34.3c-3.1-3.1-3.1-8.2,0-11.3l0,0
	c3.1-3.1,8.2-3.1,11.3,0L57,45.7C60.1,48.8,60.1,53.9,57,57z"/>
<path id="notch1" fill="#333333" d="M40,10L40,10c-0.5,0-1-0.4-1-1V3c0-0.5,0.5-1,1-1l0,0c0.5,0,1,0.4,1,1v6C41,9.6,40.5,10,40,10z"
	/>
<path id="notch2" fill="#333333" d="M49.3,11.5L49.3,11.5c-0.5-0.2-0.8-0.7-0.6-1.3l1.9-5.7c0.2-0.5,0.7-0.8,1.3-0.6v0
	c0.5,0.2,0.8,0.7,0.6,1.3l-1.9,5.7C50.4,11.3,49.8,11.6,49.3,11.5z"/>
<path id="notch3" fill="#333333" d="M57.6,15.7L57.6,15.7c-0.4-0.3-0.5-1-0.2-1.4l3.5-4.9c0.3-0.4,1-0.5,1.4-0.2l0,0
	c0.4,0.3,0.5,1,0.2,1.4L59,15.5C58.7,16,58.1,16.1,57.6,15.7z"/>
<path id="notch4" fill="#333333" d="M64.3,22.4L64.3,22.4c-0.3-0.4-0.2-1.1,0.2-1.4l4.9-3.5c0.4-0.3,1.1-0.2,1.4,0.2v0
	c0.3,0.4,0.2,1.1-0.2,1.4l-4.9,3.5C65.2,22.9,64.6,22.8,64.3,22.4z"/>
<path id="notch5" fill="#333333" d="M68.5,30.7L68.5,30.7c-0.2-0.5,0.1-1.1,0.6-1.3l5.7-1.9c0.5-0.2,1.1,0.1,1.3,0.6v0
	c0.2,0.5-0.1,1.1-0.6,1.3l-5.7,1.9C69.3,31.5,68.7,31.3,68.5,30.7z"/>
<path id="notch6" fill="#333333" d="M70,40L70,40c0-0.5,0.4-1,1-1h6c0.6,0,1,0.5,1,1l0,0c0,0.5-0.4,1-1,1h-6C70.4,41,70,40.5,70,40z
	"/>
<path id="notch7" fill="#333333" d="M68.5,49.3L68.5,49.3c0.2-0.5,0.7-0.8,1.3-0.6l5.7,1.9c0.5,0.2,0.8,0.7,0.6,1.3l0,0
	c-0.2,0.5-0.7,0.8-1.3,0.6l-5.7-1.9C68.7,50.4,68.4,49.8,68.5,49.3z"/>
<path id="notch8" fill="#333333" d="M64.3,57.6L64.3,57.6c0.3-0.4,1-0.5,1.4-0.2l4.9,3.5c0.4,0.3,0.5,1,0.2,1.4v0
	c-0.3,0.4-1,0.5-1.4,0.2L64.5,59C64,58.7,63.9,58.1,64.3,57.6z"/>
<path id="notch9" fill="#333333" d="M57.6,64.3L57.6,64.3c0.4-0.3,1.1-0.2,1.4,0.2l3.5,4.9c0.3,0.4,0.2,1.1-0.2,1.4h0
	c-0.4,0.3-1.1,0.2-1.4-0.2l-3.5-4.9C57.1,65.2,57.2,64.6,57.6,64.3z"/>
<path id="notch10" fill="#333333" d="M49.3,68.5L49.3,68.5c0.5-0.2,1.1,0.1,1.3,0.6l1.9,5.7c0.2,0.5-0.1,1.1-0.6,1.3l0,0
	c-0.5,0.2-1.1-0.1-1.3-0.6l-1.9-5.7C48.5,69.3,48.7,68.7,49.3,68.5z"/>
<path id="notch11" fill="#333333" d="M40,70L40,70c0.5,0,1,0.4,1,1v6c0,0.6-0.5,1-1,1l0,0c-0.5,0-1-0.4-1-1v-6
	C39,70.4,39.5,70,40,70z"/>
<path id="notch12" fill="#333333" d="M30.7,68.5L30.7,68.5c0.5,0.2,0.8,0.7,0.6,1.3l-1.9,5.7c-0.2,0.5-0.7,0.8-1.3,0.6h0
	c-0.5-0.2-0.8-0.7-0.6-1.3l1.9-5.7C29.6,68.7,30.2,68.4,30.7,68.5z"/>
<path id="notch13" fill="#333333" d="M22.4,64.3L22.4,64.3c0.4,0.3,0.5,1,0.2,1.4l-3.5,4.9c-0.3,0.4-1,0.5-1.4,0.2h0
	c-0.4-0.3-0.5-1-0.2-1.4l3.5-4.9C21.3,64,21.9,63.9,22.4,64.3z"/>
<path id="notch14" fill="#333333" d="M15.7,57.6L15.7,57.6c0.3,0.4,0.2,1.1-0.2,1.4l-4.9,3.5c-0.4,0.3-1.1,0.2-1.4-0.2l0,0
	c-0.3-0.4-0.2-1.1,0.2-1.4l4.9-3.5C14.8,57.1,15.4,57.2,15.7,57.6z"/>
<path id="notch15" fill="#333333" d="M11.5,49.3L11.5,49.3c0.2,0.5-0.1,1.1-0.6,1.3l-5.7,1.9c-0.5,0.2-1.1-0.1-1.3-0.6h0
	c-0.2-0.5,0.1-1.1,0.6-1.3l5.7-1.9C10.7,48.5,11.3,48.7,11.5,49.3z"/>
<path id="notch16" fill="#333333" d="M10,40L10,40c0,0.5-0.4,1-1,1H3c-0.5,0-1-0.5-1-1l0,0c0-0.5,0.4-1,1-1h6C9.6,39,10,39.5,10,40z
	"/>
<path id="notch17" fill="#333333" d="M11.5,30.7L11.5,30.7c-0.2,0.5-0.7,0.8-1.3,0.6l-5.7-1.9c-0.5-0.2-0.8-0.7-0.6-1.3l0,0
	c0.2-0.5,0.7-0.8,1.3-0.6l5.7,1.9C11.3,29.6,11.6,30.2,11.5,30.7z"/>
<path id="notch18" fill="#333333" d="M15.7,22.4L15.7,22.4c-0.3,0.4-1,0.5-1.4,0.2l-4.9-3.5c-0.4-0.3-0.5-1-0.2-1.4l0,0
	c0.3-0.4,1-0.5,1.4-0.2l4.9,3.5C16,21.3,16.1,21.9,15.7,22.4z"/>
<path id="notch19" fill="#333333" d="M22.4,15.7L22.4,15.7c-0.4,0.3-1.1,0.2-1.4-0.2l-3.5-4.9c-0.3-0.4-0.2-1.1,0.2-1.4l0,0
	c0.4-0.3,1.1-0.2,1.4,0.2l3.5,4.9C22.9,14.8,22.8,15.4,22.4,15.7z"/>
<path id="notch20" fill="#333333" d="M30.7,11.5L30.7,11.5c-0.5,0.2-1.1-0.1-1.3-0.6l-1.9-5.7c-0.2-0.5,0.1-1.1,0.6-1.3l0,0
	c0.5-0.2,1.1,0.1,1.3,0.6l1.9,5.7C31.5,10.7,31.3,11.3,30.7,11.5z"/>
</svg>
