<?xml version="1.0" encoding="utf-8"?>
<!-- Generator: Adobe Illustrator 18.1.1, SVG Export Plug-In . SVG Version: 6.00 Build 0)  -->
<!DOCTYPE svg PUBLIC "-//W3C//DTD SVG 1.1//EN" "http://www.w3.org/Graphics/SVG/1.1/DTD/svg11.dtd">
<svg version="1.1" id="Layer_1" xmlns="http://www.w3.org/2000/svg" xmlns:xlink="http://www.w3.org/1999/xlink" x="0px" y="0px"
	 viewBox="0 0 16 14" enable-background="new 0 0 16 14" xml:space="preserve">
<path fill="#B3B2B3" d="M14.849,2.752c-0.504,0.224-1.046,0.375-1.614,0.443c0.58-0.348,1.026-0.899,1.236-1.555
	c-0.543,0.322-1.144,0.556-1.785,0.682c-0.513-0.546-1.243-0.887-2.051-0.887c-1.552,0-2.81,1.258-2.81,2.81
	c0,0.22,0.025,0.435,0.073,0.64C5.561,4.767,3.491,3.649,2.105,1.948c-0.242,0.415-0.38,0.898-0.38,1.413
	c0,0.975,0.496,1.835,1.25,2.339C2.514,5.686,2.08,5.559,1.701,5.349c0,0.012,0,0.023,0,0.035c0,1.362,0.969,2.498,2.254,2.756
	C3.72,8.204,3.471,8.238,3.215,8.238c-0.181,0-0.357-0.018-0.529-0.05c0.358,1.116,1.395,1.929,2.625,1.952
	c-0.962,0.754-2.174,1.203-3.49,1.203c-0.227,0-0.451-0.013-0.67-0.039c1.244,0.797,2.721,1.263,4.308,1.263
	c5.169,0,7.996-4.282,7.996-7.996c0-0.122-0.003-0.243-0.008-0.364C13.996,3.81,14.472,3.315,14.849,2.752z"/>
</svg>
